<svg width="20" height="20" viewBox="0 0 20 20" fill="none" xmlns="http://www.w3.org/2000/svg">
<path d="M13.8358 18.8V15.5607C13.8697 15.1616 13.8116 14.7604 13.6653 14.3837C13.519 14.007 13.2879 13.6635 12.9874 13.3761C15.8215 13.0831 18.8 12.0871 18.8 7.51688C18.7997 6.34825 18.315 5.22443 17.4461 4.37803C17.8575 3.35561 17.8285 2.22549 17.3649 1.22244C17.3649 1.22244 16.2998 0.929479 13.8358 2.46124C11.7672 1.9413 9.58657 1.9413 7.5179 2.46124C5.0539 0.929479 3.98887 1.22244 3.98887 1.22244C3.5253 2.22549 3.4962 3.35561 3.90764 4.37803C3.03227 5.23071 2.54705 6.36469 2.5538 7.542C2.5538 12.0787 5.53226 13.0747 8.36631 13.4012C8.06936 13.6858 7.84035 14.0251 7.69418 14.3972C7.548 14.7693 7.48794 15.1657 7.5179 15.5607V18.8M7.5179 16.2889C3.00508 17.5445 3.00508 14.1964 1.19995 13.7778L7.5179 16.2889Z" stroke="black" stroke-width="2" stroke-linecap="round" stroke-linejoin="round"/>
</svg>
