<svg width="20" height="20" viewBox="0 0 20 20" fill="none" xmlns="http://www.w3.org/2000/svg">
<path d="M14.2 1H5.4C2.96995 1 1 2.96995 1 5.4V14.2C1 16.6301 2.96995 18.6 5.4 18.6H14.2C16.6301 18.6 18.6 16.6301 18.6 14.2V5.4C18.6 2.96995 16.6301 1 14.2 1Z" stroke="black" stroke-width="2" stroke-linecap="round" stroke-linejoin="round"/>
<path d="M13.32 9.24556C13.4286 9.97794 13.3036 10.7259 12.9626 11.3831C12.6216 12.0403 12.082 12.5732 11.4207 12.9061C10.7593 13.2389 10.0099 13.3548 9.2789 13.2372C8.54791 13.1196 7.87263 12.7744 7.3491 12.2509C6.82557 11.7274 6.48045 11.0521 6.36282 10.3211C6.2452 9.59013 6.36106 8.84067 6.69393 8.17933C7.0268 7.51799 7.55973 6.97845 8.21691 6.63745C8.87409 6.29645 9.62207 6.17136 10.3544 6.27996C11.1015 6.39074 11.7931 6.73885 12.3271 7.27287C12.8612 7.80689 13.2093 8.49851 13.32 9.24556Z" stroke="black" stroke-width="2" stroke-linecap="round" stroke-linejoin="round"/>
<path d="M14.6399 4.96002H14.6495" stroke="black" stroke-width="2" stroke-linecap="round" stroke-linejoin="round"/>
</svg>
